<svg width="57" height="39" viewBox="0 0 57 39" fill="none" xmlns="http://www.w3.org/2000/svg">
<path d="M19.2492 4.05066H13.4541C21.3984 11.9949 26.3354 23.9987 27.8109 29.0075C29.6513 20.2712 38.1877 8.72947 42.2259 4.05066H36.7511L27.8109 16.2233L19.2492 4.05066Z" fill="#000"/>
<path d="M6.69921 4.09412H0.0595703C14.5969 17.7228 17.8495 29.9 20.1231 38.7192H26.8304C22.321 18.7591 12.5234 9.34564 6.69921 4.09412Z" fill="#000"/>
<path d="M49.6885 4.09412H56.3281C41.7908 17.7228 38.5382 29.9 36.2646 38.7192H29.5573C34.0667 18.7591 43.8642 9.34564 49.6885 4.09412Z" fill="#000"/>
<path d="M49.5394 15.6873L46.6855 19.6769C49.2249 24.4993 51.5294 34.4025 52.3642 38.7513H56.4412C55.9286 27.4988 51.6264 18.6867 49.5394 15.6873Z" fill="#000"/>
<path d="M6.90198 15.6965L9.75586 19.6861C7.21649 24.5086 4.91203 34.4118 4.07722 38.7605H0.000253677C0.512787 27.5081 4.81496 18.696 6.90198 15.6965Z" fill="#000"/>
<path d="M15.4338 30.9788L12.7255 25.0089C10.5589 29.0393 9.0077 35.8517 8.50293 38.7541H13.6283C13.6749 37.3563 14.8514 32.9881 15.4338 30.9788Z" fill="#000"/>
<path d="M40.7693 30.9788L43.4776 25.0089C45.6442 29.0393 47.1954 35.8517 47.7002 38.7541H42.5749C42.5283 37.3563 41.3518 32.9881 40.7693 30.9788Z" fill="#000"/>
<rect x="26.79" y="9.66785" width="2.03812" height="1.57227" rx="0.786134" fill="#000"/>
<path fill-rule="evenodd" clip-rule="evenodd" d="M26.8565 0.0436813C27.0463 0.0149148 27.2407 0 27.4385 0H28.3809C28.5784 0 28.7724 0.0149717 28.9619 0.0438422C33.317 3.84757 29.5694 8.38591 28.5928 9.37703H27.2254C26.2487 8.38589 22.5011 3.84744 26.8565 0.0436813ZM26.4357 0.131803C24.7942 0.57311 23.5859 2.07174 23.5859 3.85259C23.5859 5.66216 24.3943 7.37712 25.7902 8.52872L26.8184 9.37703H26.9693C26.9063 9.29839 26.8008 9.18509 26.6666 9.04093C25.4244 7.70689 21.7218 3.73045 26.4357 0.131803ZM29.1516 9.04094C30.3936 7.70702 34.0956 3.7312 29.3838 0.132827C31.0098 0.57344 32.2058 2.05951 32.2058 3.82493C32.2058 5.64904 31.3786 7.37472 29.9565 8.51711L28.886 9.37703H28.8488C28.9119 9.2984 29.0174 9.18509 29.1516 9.04094Z" fill="#000"/>
</svg>
